<?xml version="1.0" encoding="UTF-8"?>
<svg xmlns="http://www.w3.org/2000/svg" id="Layer_1" data-name="Layer 1" viewBox="0 0 24 24" width="512" height="512"><path d="M20.718,4.43L14.417,.666c-1.49-.889-3.344-.889-4.834,0L3.283,4.43c-1.408,.842-2.283,2.38-2.283,4.016v7.109c0,1.636,.875,3.174,2.283,4.016l6.3,3.764c.746,.444,1.581,.667,2.417,.667s1.672-.223,2.418-.667l6.3-3.765c1.407-.841,2.282-2.38,2.282-4.015v-7.109c0-1.635-.875-3.174-2.282-4.016ZM3.795,5.289L10.096,1.525c1.175-.703,2.635-.701,3.809,0l6.3,3.763c.412,.247,.767,.569,1.049,.943l-9.253,5.195L2.746,6.232c.282-.374,.636-.697,1.049-.943Zm0,13.422c-1.107-.661-1.795-1.871-1.795-3.156v-7.109c0-.465,.09-.919,.258-1.342l9.242,5.189v10.675c-.488-.067-.966-.231-1.404-.492l-6.3-3.764Zm18.205-3.156c0,1.285-.688,2.495-1.796,3.156l-6.299,3.764c-.439,.262-.917,.427-1.405,.493V12.292l9.242-5.189c.167,.423,.258,.877,.258,1.342v7.109Z"/></svg>
